# Blender v2.72 (sub 0) OBJ File: 'CableShaft_T1.blend'
# www.blender.org
mtllib CableShaft_T1.mtl
o Cylinder.001_Cylinder.002
v 0.991607 -0.100000 -0.056260
v 0.720728 -0.016000 -0.258301
v 1.000000 -0.016000 -0.100000
v 1.000000 -0.100000 -0.051503
v 0.715116 -0.100000 -0.210130
v 1.000000 0.070603 -0.050000
v 0.707118 -0.100000 -0.211382
v 0.454567 -0.016000 -0.299974
v 0.714943 0.070603 -0.208637
v 0.700000 -0.100000 -0.212552
v 0.460495 -0.100000 -0.251914
v 0.703372 0.070603 -0.109309
v 1.000000 0.070603 0.050000
v 0.446834 -0.100000 -0.245904
v 0.460679 0.070603 -0.250425
v 0.472902 0.070603 -0.151327
v 1.000000 -0.016000 0.100000
v 0.300000 -0.016000 -0.231976
v 0.300000 0.070603 -0.180519
v 0.300000 0.013448 -0.214975
v 0.300000 0.070603 -0.077718
v 0.697587 -0.016000 -0.059645
v 0.300000 -0.072397 -0.197959
v 0.300000 0.038939 -0.059437
v 0.479013 -0.016000 -0.101778
v 0.712286 -0.100000 -0.103019
v 0.703198 -0.100000 -0.107816
v 0.300000 -0.100000 -0.182022
v 0.300000 -0.016000 -0.026371
v 0.479654 -0.100000 -0.148572
v 0.473085 -0.100000 -0.149838
v 1.000000 -0.100000 0.051503
v 0.700000 -0.100000 -0.108399
v 0.300000 -0.048364 -0.045057
v 0.349944 -0.100000 -0.097414
v 0.300000 -0.100000 -0.076151
v 1.000000 -0.400000 -1.000000
v 1.000000 -0.400000 1.000000
v -1.000000 -0.400000 1.000000
v -1.000000 -0.400000 -1.000000
v -0.700000 -0.100000 -1.000000
v 0.700000 -0.100000 -1.000000
v 0.700000 1.300000 -1.000000
v 1.000000 1.600000 -0.999999
v 1.000000 -0.100000 0.700000
v 1.000000 1.300000 -0.700000
v 1.000000 -0.100000 -0.700000
v -0.700000 -0.100000 1.000000
v 0.999999 1.600000 1.000001
v 0.700000 1.300000 1.000000
v 0.700000 -0.100000 1.000000
v 0.051503 -0.100000 1.000000
v 0.050000 -0.102602 1.000000
v -0.050000 -0.102602 1.000000
v -0.051503 -0.100000 1.000000
v -1.000000 1.600000 1.000000
v -1.000000 1.600000 -1.000000
v -0.700000 1.300000 -1.000000
v -0.262427 -0.100000 -0.700000
v -0.246841 -0.100000 -0.772357
v -0.245221 -0.100000 -0.780276
v -0.057287 -0.100000 -0.993724
v -0.138902 -0.100000 -0.764801
v 0.051503 -0.100000 -1.000000
v -0.144840 -0.100000 -0.757177
v -0.158709 -0.100000 -0.700000
v 0.191336 -0.100000 -0.700000
v 0.700000 -0.100000 -0.700000
v -0.700000 -0.100000 -0.700000
v 0.700000 0.529537 -0.700000
v 0.700000 1.300000 -0.700000
v 0.700000 -0.100000 -0.097414
v 0.700000 -0.100000 0.154525
v 0.700000 -0.100000 0.700000
v 1.000000 1.300000 0.700000
v -0.151988 -0.100000 0.822980
v -0.155049 -0.100000 0.817872
v -0.163128 -0.100000 0.700000
v -0.700000 -0.100000 0.700000
v -0.700000 1.300000 1.000000
v 0.700000 1.300000 0.700000
v 0.700000 0.529537 0.700000
v 0.191336 -0.100000 0.700000
v -0.061826 -0.100000 0.700000
v -0.055941 -0.100000 0.787250
v -0.055618 -0.100000 0.792082
v 0.048233 -0.100000 0.993387
v 0.100000 -0.016000 1.000000
v -0.050000 -0.102602 1.000000
v -0.700000 1.600000 0.700000
v -0.700000 1.600000 -0.700000
v 0.700000 1.600000 -0.700000
v 0.191336 1.300000 -0.700000
v -0.700000 1.300000 -0.700000
v -0.700000 0.529537 -0.700000
v -0.700000 -0.100000 -0.097414
v -0.300000 -0.100000 -0.097414
v -0.300000 -0.100000 -0.300000
v -0.154813 -0.100000 -0.300000
v -0.155207 -0.100000 -0.301711
v -0.160080 -0.100000 -0.322612
v -0.294154 -0.100000 -0.526804
v -0.298338 -0.100000 -0.533297
v -0.051503 -0.100000 -1.000000
v -0.346364 -0.016000 -0.527645
v -0.292483 -0.016000 -0.791152
v 0.100000 -0.016000 -1.000000
v -0.097578 -0.016000 -0.746301
v -0.194809 -0.100000 -0.551174
v -0.196333 -0.100000 -0.545303
v -0.064186 -0.100000 -0.351861
v -0.060121 -0.100000 -0.346034
v -0.049783 -0.100000 -0.300000
v 0.191336 -0.100000 -0.300000
v 0.300000 -0.100000 -0.300000
v 0.300000 -0.100000 0.154525
v 0.191336 -0.100000 0.300000
v 0.300000 -0.100000 0.300000
v 0.700000 1.300000 0.154525
v 0.700000 1.300000 -0.097414
v 0.700000 1.600000 0.700000
v 0.300000 -0.100000 -0.097414
v -0.700000 0.529537 0.700000
v -0.700000 1.300000 0.700000
v -0.100000 -0.016000 1.000000
v -0.201863 -0.016000 0.830015
v -0.168210 -0.100000 0.625857
v -0.700000 -0.100000 0.154525
v -0.168646 -0.100000 0.619535
v -0.002073 -0.100000 0.393000
v 0.003078 -0.100000 0.385916
v -0.016699 -0.100000 0.300000
v -0.300000 -0.100000 0.300000
v -0.300000 -0.100000 0.154525
v 0.191336 1.300000 0.700000
v 0.084969 -0.100000 0.300000
v 0.100166 -0.100000 0.367665
v 0.105163 -0.100000 0.390182
v -0.062079 -0.100000 0.612451
v -0.067271 -0.100000 0.619271
v -0.019542 -0.016000 0.619147
v -0.008803 -0.016000 0.779940
v -0.700000 1.300000 0.154525
v -0.700000 1.300000 -0.097414
v -0.700000 0.529537 -0.097414
v -0.300000 0.300000 0.300000
v -0.300000 0.300000 -0.300000
v 0.300000 0.300000 -0.300000
v -0.004143 -0.022614 -0.300000
v -0.000394 -0.016000 -0.300000
v -0.048278 0.065240 -0.300000
v -0.051318 0.070603 -0.300000
v -0.153338 0.070603 -0.300000
v -0.203628 -0.014562 -0.300000
v -0.204443 -0.016000 -0.300000
v -0.154932 -0.099790 -0.300000
v -0.207144 -0.016000 -0.311585
v -0.100000 -0.016000 -1.000000
v -0.243757 0.070603 -0.779939
v -0.148307 -0.016000 -0.550956
v -0.013058 -0.016000 -0.357062
v 0.300000 0.300000 0.300000
v -0.058476 -0.026280 0.300000
v -0.064550 -0.016000 0.300000
v -0.021528 0.059928 0.300000
v -0.015224 0.070603 0.300000
v 0.083434 0.070603 0.300000
v 0.126390 -0.005180 0.300000
v 0.132767 -0.016000 0.300000
v 0.089594 -0.092157 0.300000
v -0.700000 0.529537 0.154525
v -0.216376 -0.016000 0.619659
v -0.044987 -0.016000 0.383907
v 0.153227 -0.016000 0.392190
v -0.057068 0.070603 0.792459
v -0.061579 0.070603 -0.345693
v -0.158622 0.070603 -0.322954
v -0.296850 0.070603 -0.533472
v -0.146304 0.070603 -0.757514
v -0.050000 0.070602 -1.000000
v -0.197821 0.070603 -0.545128
v 0.004567 0.070603 0.385978
v 0.103674 0.070603 0.390120
v -0.153598 0.070603 0.817496
v -0.167167 0.070603 0.619531
v 0.050000 0.070603 1.000000
v -0.068750 0.070603 0.619275
v 0.050000 0.070602 -1.000000
v -0.050000 0.070603 1.000000
vn 0.440700 -0.448800 -0.777400
vn 0.429000 -0.470800 -0.770900
vn 0.429000 0.470800 -0.770900
vn 0.134000 -0.499700 -0.855800
vn 0.000000 0.000000 1.000000
vn 0.141900 0.484000 -0.863500
vn 0.000000 1.000000 0.000000
vn -0.352500 -0.483300 -0.801300
vn -0.349100 0.483800 -0.802500
vn -0.421700 0.453400 0.785200
vn -0.356000 0.467200 -0.809300
vn 0.345900 0.469100 0.812600
vn -0.155400 0.499200 0.852400
vn -0.411100 -0.474000 0.778700
vn -0.352600 -0.467900 -0.810400
vn 0.339500 0.485000 0.805900
vn -0.166000 -0.480900 0.860900
vn -0.421700 -0.453400 0.785200
vn -0.155400 -0.499200 0.852400
vn 0.342700 -0.469700 0.813600
vn 0.342600 -0.484600 0.804800
vn -0.000000 -1.000000 0.000000
vn 0.000000 0.000000 -1.000000
vn 1.000000 -0.000000 0.000000
vn -1.000000 -0.000000 -0.000000
vn 0.000000 -0.840500 -0.541800
vn -0.982000 -0.188900 0.000000
vn -0.967500 0.000000 -0.252900
vn -0.848500 -0.499900 -0.173500
vn -0.669200 -0.452800 -0.589200
vn 0.709100 -0.409400 0.574100
vn 0.841600 -0.500000 0.204200
vn -0.750800 -0.483500 0.449900
vn 0.867900 -0.493200 -0.058500
vn 0.868400 -0.492400 -0.058000
vn 0.774900 -0.489600 -0.399800
vn -0.853100 -0.483400 0.196400
vn -0.735400 -0.475400 0.482900
vn -0.746700 -0.459300 0.481100
vn 0.699000 -0.463800 0.544400
vn -0.676900 -0.390800 -0.623800
vn 0.852900 -0.472700 0.221500
vn 0.735600 -0.454400 -0.502500
vn 0.723300 -0.471500 -0.504500
vn 0.845700 -0.498700 -0.189900
vn -0.867800 -0.493200 0.059900
vn -0.732800 -0.415600 -0.538800
vn -0.730100 -0.430400 -0.530800
vn 0.845700 -0.498800 -0.189900
vn 0.722700 -0.426500 0.543800
vn 0.725300 -0.411300 0.552100
vn 0.854200 -0.484200 -0.189600
vn 0.846200 0.498700 -0.187800
vn 0.853800 0.484000 -0.191800
vn -0.844600 0.498800 0.194400
vn -0.852700 0.483100 0.198800
vn -0.844100 -0.498800 0.196800
vn -0.739000 0.476600 0.476200
vn 0.709100 0.409400 0.574100
vn -0.669200 0.452800 -0.589200
vn -0.848500 0.499900 -0.173500
vn 0.841600 0.500000 0.204200
vn 0.731400 0.452500 -0.510200
vn -0.768700 0.443800 0.460600
vn 0.780900 0.491000 -0.386100
vn 0.868400 0.492400 -0.058000
vn 0.725300 0.411300 0.552100
vn -0.867800 0.493200 0.059900
vn -0.730100 0.430400 -0.530800
vn 0.440700 0.448800 -0.777400
vn 0.141900 -0.484000 -0.863500
vn 0.134000 0.499700 -0.855800
vn -0.411100 0.474000 0.778700
vn -0.166000 0.480900 0.860900
vn 0.796100 -0.459600 -0.393600
vn -0.777200 -0.448700 0.441200
vn 0.000000 -0.470600 0.882400
vn -0.858500 -0.478400 -0.184900
vn -0.750900 -0.483500 0.449900
vn -0.868300 -0.492500 0.059500
vn -0.743200 0.457800 0.488000
vn 0.699000 0.463800 0.544400
vn -0.676900 0.390800 -0.623800
vn -0.858500 0.478400 -0.184900
vn 0.852900 0.472700 0.221500
vn 0.727600 0.472900 -0.497000
vn 0.790700 0.456500 -0.407900
vn -0.760100 0.486000 0.431400
vn 0.867900 0.493200 -0.058500
vn 0.722700 0.426500 0.543800
vn -0.868300 0.492500 0.059500
vn -0.732800 0.415600 -0.538800
usemtl None
s off
f 2//1 3//1 4//1
f 5//2 2//2 1//2
f 2//3 9//3 6//3
f 8//4 2//4 5//4
f 7//5 10//5 11//5
f 8//6 15//6 9//6
f 13//7 6//7 9//7
f 14//8 23//8 18//8
f 12//7 9//7 15//7
f 19//9 15//9 8//9
f 21//7 16//7 15//7
f 17//10 13//10 12//10
f 20//11 8//11 18//11
f 24//12 16//12 21//12
f 22//13 12//13 16//13
f 17//14 22//14 27//14
f 23//15 14//15 28//15
f 29//16 25//16 16//16
f 22//17 25//17 31//17
f 32//18 17//18 26//18
f 27//19 22//19 30//19
f 34//20 25//20 29//20
f 35//21 31//21 25//21
f 38//22 39//22 40//22
f 43//23 44//23 37//23
f 37//24 44//24 46//24
f 38//5 53//5 54//5
f 39//25 56//25 57//25
f 41//23 40//23 57//23
f 62//7 63//7 64//7
f 42//25 68//25 70//25
f 73//7 26//7 72//7
f 75//24 46//24 44//24
f 70//5 68//5 47//5
f 47//7 68//7 5//7
f 27//7 5//7 33//7
f 48//7 55//7 76//7
f 80//5 50//5 49//5
f 82//25 74//25 51//25
f 83//7 84//7 85//7
f 88//26 53//26 52//26
f 53//22 89//22 54//22
f 55//27 54//27 89//27
f 56//7 90//7 91//7
f 93//22 94//22 58//22
f 95//24 69//24 41//24
f 96//7 97//7 98//7
f 60//7 65//7 63//7
f 60//28 59//28 103//28
f 105//29 106//29 61//29
f 61//30 106//30 62//30
f 64//31 107//31 63//31
f 65//32 108//32 109//32
f 67//7 66//7 109//7
f 115//7 68//7 67//7
f 72//7 33//7 30//7
f 72//7 35//7 73//7
f 118//7 117//7 83//7
f 45//23 74//23 82//23
f 75//22 81//22 119//22
f 121//7 49//7 44//7
f 28//7 122//7 35//7
f 48//24 79//24 123//24
f 77//33 76//33 125//33
f 127//22 78//22 77//22
f 133//7 79//7 129//7
f 80//22 124//22 135//22
f 117//7 138//7 83//7
f 140//34 141//34 85//34
f 141//35 142//35 86//35
f 86//36 142//36 87//36
f 90//24 124//24 143//24
f 91//5 94//5 93//5
f 94//24 144//24 145//24
f 96//24 69//24 95//24
f 110//7 103//7 102//7
f 96//7 128//7 134//7
f 98//25 97//25 147//25
f 152//23 153//23 147//23
f 156//37 100//37 99//37
f 101//38 157//38 102//38
f 157//39 105//39 103//39
f 107//40 108//40 65//40
f 106//41 158//41 104//41
f 108//42 160//42 110//42
f 110//43 160//43 111//43
f 160//44 161//44 112//44
f 161//45 149//45 113//45
f 29//24 24//24 116//24
f 35//7 122//7 36//7
f 165//5 146//5 164//5
f 92//25 71//25 120//25
f 121//23 81//23 135//23
f 23//24 18//24 20//24
f 79//24 128//24 171//24
f 171//24 143//24 124//24
f 126//46 172//46 129//46
f 129//47 172//47 130//47
f 172//48 173//48 131//48
f 163//37 132//37 131//37
f 170//49 137//49 136//49
f 138//50 174//50 139//50
f 174//51 141//51 140//51
f 144//24 143//24 171//24
f 128//24 96//24 145//24
f 156//23 155//23 154//23
f 148//7 147//7 146//7
f 149//52 161//52 150//52
f 150//53 161//53 176//53
f 151//54 176//54 152//54
f 152//7 176//7 177//7
f 153//55 177//55 157//55
f 154//56 157//56 155//56
f 156//57 155//57 100//57
f 105//58 157//58 177//58
f 107//59 188//59 179//59
f 106//60 159//60 180//60
f 159//61 106//61 105//61
f 108//62 179//62 181//62
f 161//63 160//63 181//63
f 173//57 164//57 163//57
f 182//56 165//56 164//56
f 182//55 166//55 165//55
f 183//7 167//7 166//7
f 174//54 168//54 167//54
f 174//53 169//53 168//53
f 174//52 138//52 137//52
f 126//64 125//64 189//64
f 88//65 142//65 175//65
f 175//66 142//66 141//66
f 176//7 181//7 178//7
f 179//7 159//7 178//7
f 188//7 180//7 159//7
f 183//7 182//7 185//7
f 187//67 141//67 174//67
f 185//68 172//68 126//68
f 182//69 173//69 172//69
f 187//7 185//7 184//7
f 186//7 175//7 184//7
f 1//1 2//1 4//1
f 3//70 2//70 6//70
f 7//4 8//4 5//4
f 8//71 7//71 11//71
f 2//72 8//72 9//72
f 12//7 13//7 9//7
f 11//8 14//8 8//8
f 16//7 12//7 15//7
f 20//9 19//9 8//9
f 14//8 18//8 8//8
f 19//7 21//7 15//7
f 22//73 17//73 12//73
f 25//74 22//74 16//74
f 26//14 17//14 27//14
f 24//16 29//16 16//16
f 30//17 22//17 31//17
f 33//23 27//23 30//23
f 34//21 36//21 35//21
f 37//22 38//22 40//22
f 25//21 34//21 35//21
f 41//23 42//23 40//23
f 32//24 37//24 4//24
f 32//24 45//24 38//24
f 42//23 43//23 37//23
f 42//23 37//23 40//23
f 54//5 55//5 48//5
f 32//24 38//24 37//24
f 37//24 46//24 47//24
f 51//5 52//5 53//5
f 37//24 47//24 4//24
f 54//5 48//5 39//5
f 51//5 38//5 50//5
f 39//5 38//5 54//5
f 40//25 39//25 57//25
f 58//23 57//23 43//23
f 38//5 49//5 50//5
f 38//5 51//5 53//5
f 59//7 60//7 69//7
f 67//7 68//7 42//7
f 58//23 41//23 57//23
f 57//23 44//23 43//23
f 69//7 60//7 61//7
f 33//7 72//7 27//7
f 41//7 69//7 61//7
f 67//7 42//7 64//7
f 41//7 61//7 62//7
f 65//7 67//7 64//7
f 70//25 71//25 43//25
f 64//7 42//7 41//7
f 62//7 64//7 41//7
f 65//7 66//7 67//7
f 43//25 42//25 70//25
f 26//7 73//7 32//7
f 73//7 74//7 45//7
f 75//24 49//24 45//24
f 72//7 26//7 27//7
f 73//7 45//7 32//7
f 49//24 75//24 44//24
f 68//7 10//7 7//7
f 49//24 38//24 45//24
f 71//5 70//5 46//5
f 5//7 68//7 7//7
f 70//5 47//5 46//5
f 5//7 7//7 33//7
f 7//7 10//7 33//7
f 1//7 47//7 5//7
f 1//7 4//7 47//7
f 4//7 1//7 32//7
f 48//7 77//7 79//7
f 26//7 1//7 5//7
f 1//7 26//7 32//7
f 77//7 48//7 76//7
f 26//7 5//7 27//7
f 80//5 56//5 48//5
f 56//5 80//5 49//5
f 77//7 78//7 79//7
f 87//7 83//7 86//7
f 56//5 39//5 48//5
f 81//25 82//25 50//25
f 51//7 83//7 52//7
f 82//25 51//25 50//25
f 51//7 74//7 83//7
f 87//75 142//75 88//75
f 83//7 85//7 86//7
f 83//7 87//7 52//7
f 125//76 76//76 55//76
f 52//75 87//75 88//75
f 44//7 57//7 92//7
f 89//77 125//77 55//77
f 71//22 93//22 43//22
f 94//24 95//24 58//24
f 57//7 56//7 91//7
f 57//7 91//7 92//7
f 102//7 98//7 101//7
f 93//22 58//22 43//22
f 103//7 59//7 69//7
f 95//24 41//24 58//24
f 103//7 98//7 102//7
f 98//7 99//7 100//7
f 104//7 61//7 60//7
f 96//7 98//7 69//7
f 98//7 100//7 101//7
f 60//7 59//7 66//7
f 98//7 103//7 69//7
f 62//7 60//7 63//7
f 60//7 66//7 65//7
f 60//29 105//29 61//29
f 62//22 104//22 60//22
f 105//78 60//78 103//78
f 66//7 65//7 109//7
f 67//7 111//7 114//7
f 111//7 112//7 114//7
f 109//7 110//7 111//7
f 11//7 115//7 14//7
f 11//7 10//7 68//7
f 109//7 111//7 67//7
f 112//7 113//7 114//7
f 114//7 115//7 67//7
f 36//7 116//7 35//7
f 115//7 28//7 14//7
f 68//7 115//7 11//7
f 30//7 31//7 35//7
f 35//7 72//7 30//7
f 73//7 116//7 118//7
f 35//7 116//7 73//7
f 82//23 81//23 75//23
f 73//7 118//7 74//7
f 120//22 71//22 46//22
f 118//7 83//7 74//7
f 75//23 45//23 82//23
f 120//22 75//22 119//22
f 92//7 121//7 44//7
f 90//7 56//7 49//7
f 120//22 46//22 75//22
f 121//7 90//7 49//7
f 14//7 31//7 11//7
f 126//79 77//79 125//79
f 30//7 33//7 10//7
f 31//7 28//7 35//7
f 10//7 11//7 30//7
f 123//24 124//24 80//24
f 11//7 31//7 30//7
f 31//7 14//7 28//7
f 80//24 48//24 123//24
f 126//80 127//80 77//80
f 133//7 134//7 128//7
f 133//7 130//7 132//7
f 79//7 78//7 127//7
f 129//7 79//7 127//7
f 133//7 129//7 130//7
f 130//7 131//7 132//7
f 139//7 140//7 84//7
f 135//22 81//22 50//22
f 133//7 128//7 79//7
f 50//22 80//22 135//22
f 117//7 136//7 137//7
f 84//7 83//7 139//7
f 117//7 137//7 138//7
f 84//7 140//7 85//7
f 83//7 138//7 139//7
f 85//35 141//35 86//35
f 144//24 94//24 91//24
f 144//24 90//24 143//24
f 95//24 94//24 145//24
f 93//5 71//5 92//5
f 144//24 91//24 90//24
f 92//5 91//5 93//5
f 145//24 96//24 95//24
f 66//7 59//7 109//7
f 111//7 100//7 112//7
f 109//7 59//7 103//7
f 110//7 101//7 111//7
f 113//7 112//7 99//7
f 101//7 110//7 102//7
f 112//7 100//7 99//7
f 110//7 109//7 103//7
f 97//7 96//7 134//7
f 111//7 101//7 100//7
f 134//25 133//25 146//25
f 134//25 146//25 97//25
f 156//23 99//23 98//23
f 97//25 146//25 147//25
f 115//23 114//23 148//23
f 155//23 156//23 98//23
f 148//23 150//23 151//23
f 147//23 154//23 98//23
f 152//23 148//23 151//23
f 63//40 107//40 65//40
f 114//23 113//23 149//23
f 153//23 154//23 147//23
f 114//23 149//23 150//23
f 102//39 157//39 103//39
f 154//23 155//23 98//23
f 147//23 148//23 152//23
f 148//23 114//23 150//23
f 62//41 106//41 104//41
f 109//42 108//42 110//42
f 111//44 160//44 112//44
f 112//45 161//45 113//45
f 23//24 28//24 115//24
f 118//24 116//24 162//24
f 18//24 23//24 115//24
f 170//5 136//5 117//5
f 18//24 115//24 148//24
f 21//24 162//24 24//24
f 20//24 18//24 148//24
f 116//24 36//24 34//24
f 19//24 20//24 148//24
f 116//24 34//24 29//24
f 21//24 19//24 148//24
f 24//24 162//24 116//24
f 148//24 162//24 21//24
f 162//5 168//5 118//5
f 123//24 171//24 124//24
f 169//5 170//5 117//5
f 146//5 133//5 164//5
f 133//5 132//5 163//5
f 164//5 133//5 163//5
f 168//5 169//5 118//5
f 162//5 167//5 168//5
f 166//5 167//5 162//5
f 119//25 81//25 121//25
f 169//5 117//5 118//5
f 166//5 146//5 165//5
f 166//5 162//5 146//5
f 120//25 119//25 121//25
f 135//23 124//23 90//23
f 92//25 120//25 121//25
f 90//23 121//23 135//23
f 19//24 21//24 24//24
f 34//24 36//24 122//24
f 122//24 28//24 23//24
f 24//24 34//24 122//24
f 20//24 19//24 24//24
f 123//24 79//24 171//24
f 24//24 122//24 23//24
f 23//24 20//24 24//24
f 24//24 29//24 34//24
f 127//46 126//46 129//46
f 130//48 172//48 131//48
f 173//37 163//37 131//37
f 139//51 174//51 140//51
f 145//24 144//24 171//24
f 171//24 128//24 145//24
f 151//53 150//53 176//53
f 153//23 152//23 151//23
f 156//23 154//23 153//23
f 113//23 99//23 156//23
f 162//7 148//7 146//7
f 151//23 156//23 153//23
f 151//23 149//23 156//23
f 149//23 113//23 156//23
f 151//23 150//23 149//23
f 153//7 152//7 177//7
f 154//55 153//55 157//55
f 157//57 101//57 155//57
f 178//81 105//81 177//81
f 155//57 101//57 100//57
f 108//82 107//82 179//82
f 158//83 106//83 180//83
f 178//84 159//84 105//84
f 160//85 108//85 181//85
f 176//86 161//86 181//86
f 173//56 182//56 164//56
f 182//7 183//7 166//7
f 183//54 174//54 167//54
f 174//52 137//52 169//52
f 186//87 88//87 175//87
f 137//52 170//52 169//52
f 184//88 126//88 189//88
f 187//89 175//89 141//89
f 177//7 176//7 178//7
f 181//7 179//7 178//7
f 179//7 188//7 159//7
f 187//7 183//7 185//7
f 183//90 187//90 174//90
f 184//91 185//91 126//91
f 185//92 182//92 172//92
f 175//7 187//7 184//7
f 189//7 186//7 184//7
