# Blender v2.72 (sub 0) OBJ File: 'CableShaft_I.blend'
# www.blender.org
mtllib CableShaft_I.mtl
o Cube
v 1.000000 -1.000000 -1.000000
v 1.000000 -1.000000 1.000000
v -1.000000 -1.000000 1.000000
v -1.000000 -1.000000 -1.000000
v 1.000000 1.000000 -0.999999
v -1.000000 1.000000 -1.000000
v 1.000000 -0.681603 -0.039810
v 0.999999 1.000000 1.000001
v -1.000000 1.000000 1.000000
v -1.000000 -0.680000 0.900000
v -1.000000 -0.680000 0.379901
v -1.000000 -0.681603 0.378975
v -1.000000 -0.681603 0.278975
v -1.000000 -0.680000 0.278050
v -1.000000 -0.680000 0.061116
v -1.000000 -0.681603 0.060190
v -1.000000 -0.681603 -0.039810
v -1.000000 -0.680000 -0.040735
v -1.000000 -0.680000 -0.900000
v -1.000000 0.256013 -0.900000
v -1.000000 0.680000 -0.900000
v -1.000000 1.000000 -0.900000
v -0.195000 1.000000 -0.900000
v -0.195000 1.000000 0.900000
v -1.000000 1.000000 0.900000
v 0.999999 1.000000 0.900000
v 0.195000 1.000000 0.900000
v 0.195000 1.000000 -0.900000
v 1.000000 1.000000 -0.900000
v 1.000000 0.256013 -0.900000
v 1.000000 -0.680000 -0.900000
v 1.000000 -0.681603 0.060190
v 1.000000 0.256013 0.900000
v -1.000000 0.256013 0.900000
v 1.000000 -0.680000 0.900000
v 1.000000 -0.680000 0.379901
v 0.560124 -0.680000 0.445570
v 0.160124 -0.680000 0.461964
v -0.239876 -0.680000 0.567539
v -0.639876 -0.680000 0.379901
v -0.639876 -0.680000 0.278050
v -0.239876 -0.680000 0.465688
v 0.160124 -0.680000 0.360113
v 0.560124 -0.680000 0.343720
v 1.000000 -0.680000 0.278050
v 1.000000 -0.680000 0.061116
v 0.560124 -0.680000 0.220157
v 0.160124 -0.680000 -0.002958
v -0.239876 -0.680000 -0.095525
v -0.639876 -0.680000 0.061116
v -1.000000 -0.681603 0.060190
v -1.000000 -0.681603 -0.039810
v -0.639876 -0.680000 -0.040735
v -0.239876 -0.680000 -0.197376
v 0.160124 -0.680000 -0.104809
v 0.560124 -0.680000 0.118307
v 1.000000 -0.680000 -0.040735
v 0.195000 0.256013 -0.900000
v 0.195000 0.680000 -0.900000
v -0.195000 0.680000 -0.900000
v -0.195000 0.256013 -0.900000
v 1.000000 0.983158 -0.900000
v -0.195000 0.680000 0.900000
v -1.000000 0.680000 0.900000
v 1.000000 0.680000 0.900000
v 0.195000 0.680000 0.900000
v 1.000000 0.680000 -0.900000
v 1.000000 -0.681186 0.278735
v 1.000000 -0.681603 0.278975
v 1.000000 -0.681603 0.378975
v 1.000000 -0.680994 0.379327
v 1.000000 -0.681603 0.060190
v -0.195000 0.256013 0.900000
v 0.195000 0.256013 0.900000
v -0.639876 -0.595000 0.110190
v 1.000000 -0.595000 0.110190
v 0.560124 -0.595000 0.269232
v 0.160124 -0.595000 0.046117
v -0.239876 -0.595000 -0.046451
v -1.000000 -0.595000 0.110190
v -1.000000 -0.595000 -0.089810
v -0.639876 -0.595000 -0.089810
v -0.239876 -0.595000 -0.246451
v 0.160124 -0.595000 -0.153883
v 0.560124 -0.595000 0.069232
v 1.000000 -0.595000 -0.089810
v 0.560124 -0.508398 0.219232
v 0.160124 -0.508397 -0.003883
v -0.239876 -0.508397 -0.096451
v -0.639876 -0.508397 0.060190
v -0.639876 -0.508397 -0.039810
v -0.239876 -0.508397 -0.196451
v 0.160124 -0.508397 -0.103883
v 0.560124 -0.508398 0.119232
v 1.000000 -0.508398 -0.039810
v -1.000000 -0.508397 0.060190
v 1.000000 -0.508398 0.060190
v -1.000000 -0.508397 -0.039810
v 0.560124 -0.595000 0.294645
v 1.000000 -0.595000 0.228975
v 1.000000 -0.681603 0.278975
v 0.160124 -0.595000 0.311039
v 0.560124 -0.508398 0.344645
v 1.000000 -0.508398 0.278975
v 1.000000 -0.681603 0.378975
v -0.239876 -0.595000 0.416614
v 0.160124 -0.508397 0.361039
v 0.560124 -0.508398 0.444645
v 1.000000 -0.508398 0.378975
v 1.000000 -0.595000 0.428975
v 0.560124 -0.595000 0.494645
v -0.639876 -0.595000 0.228975
v -0.239876 -0.508397 0.466614
v 0.160124 -0.508397 0.461039
v 0.160124 -0.595000 0.511039
v -1.000000 -0.595000 0.228975
v -0.639876 -0.508397 0.278975
v -0.239876 -0.508397 0.566614
v -0.239876 -0.595000 0.616614
v -1.000000 -0.508397 0.278975
v -0.639876 -0.508397 0.378975
v -0.639876 -0.595000 0.428975
v -1.000000 -0.508397 0.378975
v -1.000000 -0.595000 0.428975
vt 0.000000 -1.000000
vt -1.000000 -1.000000
vt -1.000000 0.000000
vt 0.000000 0.000000
vt -0.000000 1.000000
vt -1.000000 1.000000
vt 1.000000 0.000000
vt 0.519905 0.159199
vt -0.597500 0.950000
vt -0.597500 0.050000
vt -0.402500 0.050000
vt 0.469905 0.159199
vt 0.050000 0.840000
vt 0.050000 1.000000
vt 1.000000 0.050000
vt 0.380062 0.216231
vt -0.000000 0.050000
vt 0.780062 0.389921
vt 0.580062 0.319943
vt 0.780062 0.328140
vt 0.000000 0.950000
vt 0.000000 0.520367
vt 0.180062 0.520367
vt 0.597500 0.628007
vt 0.000000 0.160000
vt 1.000000 0.160000
vt 0.000000 0.840000
vt 0.000000 0.628007
vt 0.402500 0.628007
vt 0.950000 0.000000
vt 0.950000 -0.160000
vt 0.950000 0.991579
vt 1.000000 1.000000
vt 0.950000 1.000000
vt 0.000000 -0.160000
vt 0.402500 -0.160000
vt 0.050000 -0.160000
vt 0.597500 0.000000
vt 1.000000 -0.160000
vt 0.050000 0.000000
vt 0.000000 0.991579
vt -0.402500 1.000000
vt 0.310050 0.160000
vt 0.050000 0.160000
vt 0.310337 0.159503
vt 0.469442 0.160000
vt 0.360975 0.160000
vt -0.402500 0.840000
vt -0.402500 0.628007
vt 0.597500 0.950000
vt 0.597500 0.050000
vt 0.402500 0.050000
vt 0.950000 0.840000
vt 1.000000 0.840000
vt 1.402500 0.840000
vt 1.402500 0.628007
vt 1.000000 0.628007
vt 0.597500 0.840000
vt 0.950000 0.628007
vt 0.310512 0.159199
vt 0.360512 0.159199
vt 0.520367 0.160000
vt 0.950000 0.160000
vt -0.402500 0.950000
vt -1.000000 0.950000
vt -1.000000 0.050000
vt 0.360633 0.159407
vt 0.050000 0.628007
vt 0.580062 0.269018
vt 0.000000 0.310050
vt 0.180062 0.310050
vt 1.000000 0.310050
vt 0.780062 0.277215
vt 0.380062 0.547763
vt 0.180062 0.360975
vt 0.380062 0.267156
vt 0.000000 0.360975
vt 0.000000 0.469442
vt 0.180062 0.469442
vt 1.000000 0.360975
vt 1.000000 0.469442
vt 0.580062 0.501479
vt 0.380062 0.598688
vt 1.000000 0.950000
vt 0.580062 0.552404
vt 0.780062 0.440847
vt 1.000000 0.520367
vt 0.402500 0.840000
vt 0.402500 0.000000
vt 0.597500 -0.160000
vt 0.402500 0.950000
vn 0.000000 -1.000000 0.000000
vn 0.000000 0.000000 -1.000000
vn -0.000000 -0.000000 1.000000
vn -1.000000 0.000000 -0.000000
vn 0.000000 1.000000 0.000000
vn 1.000000 0.000000 0.000000
vn 0.000000 -0.773100 0.634300
vn 0.298800 -0.477200 0.826500
vn -0.435000 -0.450200 0.779800
vn -0.196500 -0.490300 0.849100
vn 0.321200 -0.473500 0.820100
vn 0.000000 -0.520400 -0.853900
vn -0.321200 -0.473500 -0.820100
vn 0.196500 -0.490300 -0.849100
vn 0.435000 -0.450200 -0.779800
vn -0.298800 -0.477200 -0.826500
vn -0.435000 0.450200 0.779800
vn -0.196500 0.490300 0.849100
vn 0.321200 0.473500 0.820100
vn -0.321200 0.473500 -0.820100
vn 0.196500 0.490300 -0.849100
vn 0.435000 0.450200 -0.779800
vn -0.298800 0.477200 -0.826500
vn 0.000000 0.500000 0.866000
vn 0.298800 0.477200 0.826500
vn 0.000000 0.500000 -0.866000
vn 0.059000 -0.590100 -0.805100
vn -0.035500 -0.499700 -0.865500
vn -0.128200 0.495900 -0.858900
vn -0.222800 -0.487400 -0.844300
vn -0.035500 0.499700 -0.865500
vn 0.000000 -0.693400 0.720600
vn 0.376400 -0.463200 -0.802300
vn -0.222800 0.487400 -0.844300
vn 0.128200 0.495900 0.858900
vn 0.035500 -0.499700 0.865500
vn -0.000000 -0.500000 -0.866000
vn 0.376400 0.463200 -0.802300
vn 0.035500 0.499700 0.865500
vn 0.222800 -0.487400 0.844300
vn 0.222800 0.487400 0.844300
vn -0.376400 -0.463200 0.802300
vn -0.376400 0.463200 0.802300
vn 0.000000 -0.500000 0.866000
vn -1.000000 -0.000100 -0.000000
vn -0.177600 0.000000 0.984100
vn 0.278400 -0.742500 0.609300
vn 0.476000 0.000000 0.879400
vn 0.214400 -0.571600 -0.792000
vn -0.128200 -0.495900 -0.858900
vn 0.000000 -0.520300 -0.854000
vn 0.128200 -0.495900 0.858900
vn 0.000000 -0.376300 0.926500
usemtl Material
s off
f 2/1/1 3/2/1 4/3/1
f 1/1/2 4/2/2 6/3/2
f 2/4/3 8/5/3 9/6/3
f 4/7/4 3/4/4 17/8/4
f 23/9/5 24/10/5 27/11/5
f 32/12/6 2/4/6 7/8/6
f 65/13/6 26/14/6 8/5/6
f 9/5/4 25/14/4 64/13/4
f 35/15/5 39/16/5 10/17/5
f 47/18/5 43/19/5 44/20/5
f 51/4/7 16/4/7 15/4/7
f 51/4/1 52/4/1 17/4/1
f 19/21/5 18/22/5 53/23/5
f 58/24/3 19/25/3 31/26/3
f 21/27/3 20/28/3 61/29/3
f 22/30/4 6/7/4 21/31/4
f 62/32/6 5/33/6 29/34/6
f 22/4/3 21/35/3 60/36/3
f 23/30/4 60/31/4 63/37/4
f 63/36/2 64/35/2 25/4/2
f 27/38/2 26/7/2 65/39/2
f 27/40/6 66/37/6 59/31/6
f 62/41/3 29/5/3 28/42/3
f 7/4/1 72/4/1 32/4/1
f 73/29/2 35/26/2 10/25/2
f 36/43/6 35/44/6 71/45/6
f 32/12/6 46/46/6 45/47/6
f 76/4/8 77/4/8 47/4/8
f 77/4/9 78/4/9 48/4/9
f 78/4/10 79/4/10 49/4/10
f 49/4/11 79/4/11 75/4/11
f 18/4/12 17/4/12 52/4/12
f 53/4/13 82/4/13 83/4/13
f 83/4/14 84/4/14 55/4/14
f 84/4/15 85/4/15 56/4/15
f 56/4/16 85/4/16 86/4/16
f 67/27/3 59/48/3 58/49/3
f 59/50/1 66/51/1 63/52/1
f 67/53/6 5/33/6 62/32/6
f 64/54/2 63/55/2 73/56/2
f 33/57/2 74/24/2 66/58/2
f 77/4/17 87/4/17 88/4/17
f 78/4/18 88/4/18 89/4/18
f 75/4/19 79/4/19 89/4/19
f 91/4/20 92/4/20 83/4/20
f 93/4/21 84/4/21 83/4/21
f 94/4/22 85/4/22 84/4/22
f 94/4/23 95/4/23 86/4/23
f 75/4/24 90/4/24 96/4/24
f 77/4/25 76/4/25 97/4/25
f 87/4/5 94/4/5 93/4/5
f 88/4/5 93/4/5 92/4/5
f 90/4/5 89/4/5 92/4/5
f 91/4/26 82/4/26 81/4/26
f 87/4/5 97/4/5 95/4/5
f 90/4/5 91/4/5 98/4/5
f 100/4/27 101/4/27 45/4/27
f 43/4/28 102/4/28 99/4/28
f 103/4/29 104/4/29 100/4/29
f 101/4/1 105/4/1 70/4/1
f 42/4/30 106/4/30 102/4/30
f 107/4/31 103/4/31 99/4/31
f 108/4/5 109/4/5 104/4/5
f 105/4/32 110/4/32 36/4/32
f 112/4/33 106/4/33 42/4/33
f 113/4/34 107/4/34 102/4/34
f 114/4/5 108/4/5 103/4/5
f 111/4/35 110/4/35 109/4/35
f 37/4/36 111/4/36 115/4/36
f 116/4/37 112/4/37 41/4/37
f 113/4/38 106/4/38 112/4/38
f 118/4/5 114/4/5 107/4/5
f 115/4/39 111/4/39 108/4/39
f 38/4/40 115/4/40 119/4/40
f 120/4/26 117/4/26 112/4/26
f 118/4/5 113/4/5 117/4/5
f 119/4/41 115/4/41 114/4/41
f 119/4/42 122/4/42 40/4/42
f 121/4/5 117/4/5 120/4/5
f 119/4/43 118/4/43 121/4/43
f 122/4/44 124/4/44 11/4/44
f 122/4/24 121/4/24 123/4/24
f 1/4/1 2/1/1 4/3/1
f 5/4/2 1/1/2 6/3/2
f 3/3/3 2/4/3 9/6/3
f 4/7/4 20/59/4 6/33/4
f 10/44/4 12/60/4 3/4/4
f 10/44/45 11/43/45 12/60/45
f 13/61/4 14/47/4 15/46/4
f 20/59/4 21/53/4 6/33/4
f 13/61/4 15/46/4 16/12/4
f 3/4/4 16/12/4 17/8/4
f 3/4/4 12/60/4 13/61/4
f 17/8/4 18/62/4 19/63/4
f 19/63/4 20/59/4 4/7/4
f 8/4/5 26/17/5 27/11/5
f 17/8/4 19/63/4 4/7/4
f 28/64/5 29/21/5 5/5/5
f 3/4/4 13/61/4 16/12/4
f 28/64/5 5/5/5 6/6/5
f 27/11/5 24/10/5 8/4/5
f 6/6/5 22/65/5 23/9/5
f 24/10/5 25/66/5 9/3/5
f 28/64/5 6/6/5 23/9/5
f 31/63/6 57/62/6 7/8/6
f 27/11/5 28/64/5 23/9/5
f 2/4/6 1/7/6 7/8/6
f 24/10/5 9/3/5 8/4/5
f 32/12/6 68/67/6 69/61/6
f 30/59/6 31/63/6 1/7/6
f 70/60/6 71/45/6 35/44/6
f 5/33/6 30/59/6 1/7/6
f 70/60/6 35/44/6 2/4/6
f 1/7/6 31/63/6 7/8/6
f 69/61/6 70/60/6 2/4/6
f 35/44/6 33/68/6 2/4/6
f 32/12/6 69/61/6 2/4/6
f 34/68/4 10/44/4 3/4/4
f 5/33/6 67/53/6 30/59/6
f 65/13/6 8/5/6 33/68/6
f 33/68/6 8/5/6 2/4/6
f 34/68/4 9/5/4 64/13/4
f 39/16/5 35/15/5 38/69/5
f 11/70/5 10/17/5 40/71/5
f 34/68/4 3/4/4 9/5/4
f 35/15/5 36/72/5 37/73/5
f 49/74/5 41/75/5 42/76/5
f 14/77/5 41/75/5 15/78/5
f 10/17/5 39/16/5 40/71/5
f 35/15/5 37/73/5 38/69/5
f 43/19/5 49/74/5 42/76/5
f 16/4/1 51/4/1 17/4/1
f 49/74/5 50/79/5 41/75/5
f 45/80/5 46/81/5 47/18/5
f 45/80/5 47/18/5 44/20/5
f 41/75/5 50/79/5 15/78/5
f 43/19/5 48/82/5 49/74/5
f 80/4/44 15/4/44 75/4/44
f 43/19/5 47/18/5 48/82/5
f 19/21/5 54/83/5 31/84/5
f 15/4/46 80/4/46 51/4/46
f 15/4/44 50/4/44 75/4/44
f 55/85/5 56/86/5 57/87/5
f 54/83/5 19/21/5 53/23/5
f 57/87/5 31/84/5 55/85/5
f 61/29/3 20/28/3 19/25/3
f 31/84/5 54/83/5 55/85/5
f 59/58/3 60/88/3 61/29/3
f 30/57/3 58/24/3 31/26/3
f 58/24/3 59/58/3 61/29/3
f 23/89/3 22/4/3 60/36/3
f 19/25/3 58/24/3 61/29/3
f 60/88/3 21/27/3 61/29/3
f 24/40/4 23/30/4 63/37/4
f 24/89/2 63/36/2 25/4/2
f 66/90/2 27/38/2 65/39/2
f 28/30/6 27/40/6 59/31/6
f 59/48/3 67/27/3 62/41/3
f 59/48/3 62/41/3 28/42/3
f 74/24/2 33/57/2 35/26/2
f 63/88/2 66/58/2 74/24/2
f 34/28/2 73/29/2 10/25/2
f 73/29/2 63/88/2 74/24/2
f 46/4/47 32/4/47 72/4/47
f 35/26/2 73/29/2 74/24/2
f 68/67/6 32/12/6 45/47/6
f 46/4/8 76/4/8 47/4/8
f 46/4/48 72/4/48 76/4/48
f 48/4/10 78/4/10 49/4/10
f 47/4/9 77/4/9 48/4/9
f 50/4/11 49/4/11 75/4/11
f 53/4/37 18/4/37 82/4/37
f 54/4/13 53/4/13 83/4/13
f 54/4/14 83/4/14 55/4/14
f 18/4/49 52/4/49 81/4/49
f 18/4/37 81/4/37 82/4/37
f 55/4/15 84/4/15 56/4/15
f 57/4/16 56/4/16 86/4/16
f 30/28/3 67/27/3 58/49/3
f 60/91/1 59/50/1 63/52/1
f 34/57/2 64/54/2 73/56/2
f 65/54/2 33/57/2 66/58/2
f 78/4/17 77/4/17 88/4/17
f 79/4/18 78/4/18 89/4/18
f 90/4/19 75/4/19 89/4/19
f 82/4/20 91/4/20 83/4/20
f 92/4/21 93/4/21 83/4/21
f 93/4/22 94/4/22 84/4/22
f 85/4/23 94/4/23 86/4/23
f 80/4/24 75/4/24 96/4/24
f 87/4/25 77/4/25 97/4/25
f 88/4/5 87/4/5 93/4/5
f 89/4/5 88/4/5 92/4/5
f 91/4/5 90/4/5 92/4/5
f 98/4/26 91/4/26 81/4/26
f 94/4/5 87/4/5 95/4/5
f 96/4/5 90/4/5 98/4/5
f 45/4/50 44/4/50 99/4/50
f 69/4/5 68/4/5 45/4/5
f 45/4/50 99/4/50 100/4/50
f 101/4/51 69/4/51 45/4/51
f 44/4/28 43/4/28 99/4/28
f 99/4/29 103/4/29 100/4/29
f 69/4/3 101/4/3 70/4/3
f 43/4/30 42/4/30 102/4/30
f 102/4/31 107/4/31 99/4/31
f 103/4/5 108/4/5 104/4/5
f 36/4/4 71/4/4 70/4/4
f 36/4/52 110/4/52 37/4/52
f 36/4/53 70/4/53 105/4/53
f 106/4/34 113/4/34 102/4/34
f 41/4/33 112/4/33 42/4/33
f 110/4/52 111/4/52 37/4/52
f 107/4/5 114/4/5 103/4/5
f 108/4/35 111/4/35 109/4/35
f 38/4/36 37/4/36 115/4/36
f 14/4/37 116/4/37 41/4/37
f 117/4/38 113/4/38 112/4/38
f 113/4/5 118/4/5 107/4/5
f 114/4/39 115/4/39 108/4/39
f 39/4/40 38/4/40 119/4/40
f 116/4/26 120/4/26 112/4/26
f 121/4/5 118/4/5 117/4/5
f 118/4/41 119/4/41 114/4/41
f 39/4/42 119/4/42 40/4/42
f 123/4/5 121/4/5 120/4/5
f 122/4/43 119/4/43 121/4/43
f 40/4/44 122/4/44 11/4/44
f 124/4/24 122/4/24 123/4/24
