# Blender v2.72 (sub 0) OBJ File: 'Kamera.blend'
# www.blender.org
mtllib Camera.mtl
o Cylinder_Cylinder.002
v -0.065013 1.415036 -0.012012
v -0.065013 1.499560 -0.193274
v -0.045504 1.416778 -0.011200
v -0.045504 1.501301 -0.192461
v -0.026745 1.421935 -0.008795
v -0.026745 1.506459 -0.190057
v -0.009456 1.430310 -0.004890
v -0.009456 1.514834 -0.186151
v 0.005697 1.441581 0.000366
v 0.005697 1.526105 -0.180895
v 0.018134 1.455315 0.006770
v 0.018134 1.539839 -0.174491
v 0.027375 1.470984 0.014077
v 0.027375 1.555508 -0.167185
v 0.033065 1.487986 0.022005
v 0.033065 1.572510 -0.159257
v 0.034987 1.505667 0.030250
v 0.034987 1.590191 -0.151012
v 0.033065 1.523348 0.038495
v 0.033065 1.607872 -0.142767
v 0.027375 1.540350 0.046423
v 0.027375 1.624874 -0.134839
v 0.018134 1.556019 0.053729
v 0.018134 1.640543 -0.127532
v 0.005697 1.569753 0.060133
v 0.005697 1.654276 -0.121128
v -0.009456 1.581024 0.065389
v -0.009456 1.665547 -0.115872
v -0.026745 1.589399 0.069295
v -0.026745 1.673923 -0.111967
v -0.045504 1.594556 0.071700
v -0.045504 1.679080 -0.109562
v -0.065013 1.596298 0.072512
v -0.065013 1.680822 -0.108750
v -0.084522 1.594556 0.071700
v -0.084522 1.679080 -0.109562
v -0.103282 1.589399 0.069295
v -0.103282 1.673923 -0.111967
v -0.120570 1.581024 0.065389
v -0.120570 1.665547 -0.115872
v -0.135724 1.569753 0.060133
v -0.135724 1.654276 -0.121128
v -0.148160 1.556019 0.053729
v -0.148160 1.640543 -0.127532
v -0.157401 1.540350 0.046423
v -0.157401 1.624874 -0.134839
v -0.163092 1.523348 0.038495
v -0.163092 1.607872 -0.142767
v -0.165013 1.505667 0.030250
v -0.165013 1.590191 -0.151012
v -0.163092 1.487986 0.022005
v -0.163092 1.572510 -0.159257
v -0.157401 1.470984 0.014077
v -0.157401 1.555508 -0.167185
v -0.148160 1.455315 0.006770
v -0.148160 1.539839 -0.174491
v -0.135724 1.441581 0.000366
v -0.135724 1.526105 -0.180895
v -0.120570 1.430310 -0.004890
v -0.120570 1.514834 -0.186151
v -0.103281 1.421935 -0.008795
v -0.103281 1.506459 -0.190057
v -0.084522 1.416778 -0.011200
v -0.084522 1.501301 -0.192461
vn 0.098000 -0.901900 -0.420600
vn 0.290300 -0.867300 -0.404400
vn 0.471400 -0.799300 -0.372700
vn 0.634400 -0.700600 -0.326700
vn 0.773000 -0.575000 -0.268100
vn 0.881900 -0.427200 -0.199200
vn 0.956900 -0.263100 -0.122700
vn 0.995200 -0.088800 -0.041400
vn 0.995200 0.088800 0.041400
vn 0.956900 0.263100 0.122700
vn 0.881900 0.427200 0.199200
vn 0.773000 0.575000 0.268100
vn 0.634400 0.700600 0.326700
vn 0.471400 0.799300 0.372700
vn 0.290300 0.867300 0.404400
vn 0.098000 0.901900 0.420600
vn -0.098000 0.901900 0.420600
vn -0.290300 0.867300 0.404400
vn -0.471400 0.799300 0.372700
vn -0.634400 0.700600 0.326700
vn -0.773000 0.575000 0.268100
vn -0.881900 0.427200 0.199200
vn -0.956900 0.263100 0.122700
vn -0.995200 0.088800 0.041400
vn -0.995200 -0.088800 -0.041400
vn -0.956900 -0.263100 -0.122700
vn -0.881900 -0.427200 -0.199200
vn -0.773000 -0.575000 -0.268100
vn -0.634400 -0.700600 -0.326700
vn -0.471400 -0.799300 -0.372700
vn 0.000000 0.422600 -0.906300
vn -0.098000 -0.901900 -0.420600
vn -0.290300 -0.867300 -0.404400
vn 0.000000 -0.422600 0.906300
usemtl None
s off
f 1//1 2//1 4//1
f 4//2 6//2 5//2
f 6//3 8//3 7//3
f 7//4 8//4 10//4
f 10//5 12//5 11//5
f 12//6 14//6 13//6
f 14//7 16//7 15//7
f 16//8 18//8 17//8
f 18//9 20//9 19//9
f 19//10 20//10 22//10
f 22//11 24//11 23//11
f 24//12 26//12 25//12
f 26//13 28//13 27//13
f 27//14 28//14 30//14
f 29//15 30//15 32//15
f 32//16 34//16 33//16
f 33//17 34//17 36//17
f 35//18 36//18 38//18
f 37//19 38//19 40//19
f 39//20 40//20 42//20
f 42//21 44//21 43//21
f 43//22 44//22 46//22
f 45//23 46//23 48//23
f 47//24 48//24 50//24
f 49//25 50//25 52//25
f 52//26 54//26 53//26
f 53//27 54//27 56//27
f 55//28 56//28 58//28
f 57//29 58//29 60//29
f 59//30 60//30 62//30
f 36//31 34//31 38//31
f 64//32 2//32 1//32
f 61//33 62//33 64//33
f 53//34 55//34 57//34
f 3//1 1//1 4//1
f 3//2 4//2 5//2
f 5//3 6//3 7//3
f 9//4 7//4 10//4
f 9//5 10//5 11//5
f 11//6 12//6 13//6
f 13//7 14//7 15//7
f 15//8 16//8 17//8
f 17//9 18//9 19//9
f 21//10 19//10 22//10
f 21//11 22//11 23//11
f 23//12 24//12 25//12
f 25//13 26//13 27//13
f 29//14 27//14 30//14
f 31//15 29//15 32//15
f 31//16 32//16 33//16
f 35//17 33//17 36//17
f 37//18 35//18 38//18
f 39//19 37//19 40//19
f 41//20 39//20 42//20
f 41//21 42//21 43//21
f 45//22 43//22 46//22
f 47//23 45//23 48//23
f 49//24 47//24 50//24
f 51//25 49//25 52//25
f 51//26 52//26 53//26
f 55//27 53//27 56//27
f 57//28 55//28 58//28
f 59//29 57//29 60//29
f 61//30 59//30 62//30
f 4//31 52//31 6//31
f 58//31 64//31 60//31
f 12//31 22//31 14//31
f 20//31 18//31 16//31
f 12//31 52//31 44//31
f 24//31 34//31 26//31
f 28//31 26//31 30//31
f 58//31 56//31 52//31
f 26//31 34//31 30//31
f 40//31 38//31 42//31
f 44//31 52//31 46//31
f 48//31 46//31 50//31
f 56//31 54//31 52//31
f 12//31 24//31 22//31
f 63//32 64//32 1//32
f 46//31 52//31 50//31
f 52//31 12//31 10//31
f 34//31 12//31 38//31
f 22//31 20//31 14//31
f 34//31 32//31 30//31
f 10//31 8//31 6//31
f 58//31 4//31 2//31
f 4//31 58//31 52//31
f 63//33 61//33 64//33
f 38//31 44//31 42//31
f 24//31 12//31 34//31
f 38//31 12//31 44//31
f 58//31 2//31 64//31
f 52//31 10//31 6//31
f 64//31 62//31 60//31
f 20//31 16//31 14//31
f 53//34 33//34 51//34
f 61//34 63//34 59//34
f 59//34 53//34 57//34
f 41//34 45//34 47//34
f 49//34 41//34 47//34
f 41//34 43//34 45//34
f 41//34 33//34 39//34
f 33//34 35//34 37//34
f 27//34 7//34 25//34
f 7//34 27//34 5//34
f 17//34 19//34 21//34
f 59//34 5//34 53//34
f 33//34 41//34 49//34
f 9//34 11//34 13//34
f 9//34 13//34 7//34
f 1//34 3//34 5//34
f 33//34 37//34 39//34
f 5//34 59//34 63//34
f 53//34 27//34 33//34
f 1//34 5//34 63//34
f 27//34 29//34 31//34
f 17//34 23//34 15//34
f 7//34 15//34 25//34
f 51//34 33//34 49//34
f 23//34 25//34 15//34
f 5//34 27//34 53//34
f 23//34 17//34 21//34
f 13//34 15//34 7//34
f 33//34 27//34 31//34
o Cube.003_Cube.008
v -0.258467 1.513377 -0.188433
v -0.258467 1.615983 -0.470341
v 0.141533 1.615983 -0.470341
v 0.141533 1.513377 -0.188433
v -0.258467 1.654331 -0.137130
v -0.258467 1.756937 -0.419038
v 0.141533 1.756937 -0.419038
v 0.141533 1.654331 -0.137130
vn -1.000000 0.000000 0.000000
vn 0.000000 0.342000 -0.939700
vn 1.000000 -0.000000 0.000000
vn 0.000000 -0.342000 0.939700
vn 0.000000 -0.939700 -0.342000
vn 0.000000 0.939700 0.342000
usemtl None
s off
f 70//35 66//35 65//35
f 71//36 67//36 66//36
f 71//37 72//37 68//37
f 69//38 65//38 68//38
f 66//39 67//39 68//39
f 71//40 70//40 69//40
f 69//35 70//35 65//35
f 70//36 71//36 66//36
f 67//37 71//37 68//37
f 72//38 69//38 68//38
f 65//39 66//39 68//39
f 72//40 71//40 69//40
o Cube.001_Cube.006
v -0.189312 1.557905 -0.344848
v -0.189312 1.416788 -0.676037
v 0.010688 1.416788 -0.676037
v 0.010688 1.557905 -0.344848
v -0.189312 1.649902 -0.384047
v -0.189312 1.508785 -0.715236
v 0.010688 1.508785 -0.715236
v 0.010688 1.649902 -0.384047
vn -1.000000 0.000000 0.000000
vn 0.000000 -0.392000 -0.920000
vn 1.000000 -0.000000 0.000000
vn 0.000000 0.392000 0.920000
vn 0.000000 -0.920000 0.392000
vn 0.000000 0.920000 -0.392000
usemtl None
s off
f 78//41 74//41 73//41
f 79//42 75//42 74//42
f 80//43 76//43 75//43
f 77//44 73//44 76//44
f 74//45 75//45 76//45
f 79//46 78//46 77//46
f 77//41 78//41 73//41
f 78//42 79//42 74//42
f 79//43 80//43 75//43
f 80//44 77//44 76//44
f 73//45 74//45 76//45
f 80//46 79//46 77//46
o Cube.002_Cube.007
v -0.189312 1.413249 -1.001228
v -0.189312 1.413249 -0.670031
v -0.189312 1.513249 -0.670031
v -0.189312 1.513249 -1.001228
v 0.010688 1.413249 -1.001228
v 0.010688 1.413249 -0.670031
v 0.010688 1.513249 -0.670031
v 0.010688 1.513249 -1.001228
vn -1.000000 0.000000 0.000000
vn 0.000000 -1.000000 0.000000
vn 0.000000 0.000000 1.000000
vn 0.000000 1.000000 0.000000
vn 1.000000 0.000000 0.000000
vn 0.000000 0.000000 -1.000000
usemtl None
s off
f 82//47 83//47 84//47
f 85//48 86//48 82//48
f 83//49 82//49 86//49
f 84//50 83//50 87//50
f 87//51 86//51 85//51
f 85//52 81//52 84//52
f 81//47 82//47 84//47
f 81//48 85//48 82//48
f 87//49 83//49 86//49
f 88//50 84//50 87//50
f 88//51 87//51 85//51
f 88//52 85//52 84//52
o Cube.004_Cube.009
v -0.208467 1.408698 -0.120115
v -0.208467 1.579708 -0.589962
v 0.091533 1.579708 -0.589962
v 0.091533 1.408698 -0.120115
v -0.208467 1.690606 -0.017509
v -0.208467 1.861616 -0.487356
v 0.091533 1.861616 -0.487356
v 0.091533 1.690606 -0.017509
vn -1.000000 -0.000000 0.000000
vn 0.000000 0.342000 -0.939700
vn 1.000000 0.000000 0.000000
vn 0.000000 -0.342000 0.939700
vn 0.000000 -0.939700 -0.342000
vn 0.000000 0.939700 0.342000
usemtl None
s off
f 93//53 94//53 90//53
f 95//54 91//54 90//54
f 96//55 92//55 91//55
f 93//56 89//56 92//56
f 90//57 91//57 92//57
f 95//58 94//58 93//58
f 89//53 93//53 90//53
f 94//54 95//54 90//54
f 95//55 96//55 91//55
f 96//56 93//56 92//56
f 89//57 90//57 92//57
f 96//58 95//58 93//58
