# Blender v2.72 (sub 0) OBJ File: 'VentilationShaft_I.blend'
# www.blender.org
mtllib VentilationShaft_I.mtl
o Cube_Cube.003
v -1.000000 1.000000 1.000000
v -1.000000 1.000000 -1.000000
v -1.000000 -1.000000 -1.000000
v -1.000000 -1.000000 1.000000
v -0.900000 -0.900000 1.000000
v -0.900000 0.900000 1.000000
v 0.900000 0.900000 1.000000
v 1.000000 1.000000 1.000000
v -0.726502 1.000000 0.825000
v -0.726502 1.000000 -0.825000
v -0.526501 1.000000 -0.825000
v -0.353095 1.000000 -0.825000
v -0.153095 1.000000 -0.825000
v 0.066479 1.000000 -0.825000
v 0.266479 1.000000 -0.825000
v 0.475682 1.000000 -0.825000
v 1.000000 1.000000 -1.000000
v 0.900000 0.900000 -1.000000
v -0.900000 0.900000 -1.000000
v -0.900000 -0.900000 -1.000000
v 1.000000 -1.000000 -1.000000
v 1.000000 -1.000000 1.000000
v 0.900000 -0.900000 1.000000
v -0.353095 0.900000 0.825000
v -0.153095 0.900000 0.825000
v 0.066479 0.900000 0.825000
v 0.266479 0.900000 0.825000
v 0.266479 0.900000 -0.825000
v 0.475682 0.900000 -0.825000
v 0.475682 0.900000 0.825000
v 0.066479 0.900000 -0.825000
v -0.153095 0.900000 -0.825000
v 0.475682 1.000000 0.825000
v 0.266479 1.000000 0.825000
v 0.066479 1.000000 0.825000
v -0.153095 1.000000 0.825000
v -0.353095 1.000000 0.825000
v -0.526501 1.000000 0.825000
v -0.726502 0.900000 0.825000
v -0.726502 0.900000 -0.825000
v -0.526501 0.900000 -0.825000
v -0.353095 0.900000 -0.825000
v 0.675682 1.000000 -0.825000
v 0.675682 1.000000 0.825000
v 0.900000 -0.900000 -1.000000
v -0.526501 0.900000 0.825000
v 0.675682 0.900000 0.825000
v 0.675682 0.900000 -0.825000
vt 1.000000 0.000000
vt 1.000000 -1.000000
vt 0.000000 -1.000000
vt 0.000000 1.000000
vt 0.000000 0.000000
vt 0.050000 0.050000
vt 0.136749 0.912500
vt 0.236749 0.912500
vt 1.000000 1.000000
vt 0.950000 0.950000
vt 0.050000 0.950000
vt 0.950000 0.050000
vt 0.000000 0.050000
vt 1.000000 0.050000
vt 1.000000 0.950000
vt 0.050000 0.000000
vt 0.323452 0.087500
vt 0.423452 0.087500
vt 0.950000 0.000000
vt 0.533240 -0.087500
vt 0.423452 -0.087500
vt 0.633240 0.087500
vt 0.533240 0.087500
vt 0.236749 0.087500
vt 0.136749 0.087500
vt 0.087500 0.000000
vt 0.087500 -0.050000
vt 0.912500 -0.050000
vt 0.136749 0.000000
vt 0.136749 -0.050000
vt 0.236749 -0.050000
vt 0.323452 0.000000
vt 0.323452 -0.050000
vt 0.423452 -0.050000
vt 0.837841 0.087500
vt 0.737841 0.087500
vt 0.050000 1.000000
vt 0.950000 1.000000
vt 0.423452 0.912500
vt -1.000000 0.000000
vt -1.000000 -1.000000
vt -1.000000 0.050000
vt -1.000000 0.950000
vt 0.423452 0.000000
vt 0.912500 0.000000
vt 0.236749 0.000000
vt 0.837841 0.000000
vt 0.837841 -0.050000
vt 0.737841 -0.050000
vt 0.737841 0.000000
vt 0.533240 0.000000
vt 0.533240 -0.050000
vt 0.633240 -0.050000
vt 0.633240 0.000000
vt 0.533240 0.912500
vt 0.737841 0.912500
vt 0.633240 0.912500
vt 0.323452 0.912500
vt 0.000000 0.950000
vt 0.737841 -0.087500
vt 0.633240 -0.087500
vt 0.533240 -0.912500
vt 0.423452 -0.912500
vt 0.837841 0.912500
vn -1.000000 0.000000 0.000000
vn 0.000000 0.000000 1.000000
vn 0.000000 1.000000 0.000000
vn 0.000000 0.000000 -1.000000
vn 0.000000 -1.000000 0.000000
vn 1.000000 0.000000 0.000000
usemtl None
s off
f 2/1/1 3/2/1 4/3/1
f 1/4/2 4/5/2 5/6/2
f 2/4/3 10/7/3 11/8/3
f 17/9/4 18/10/4 19/11/4
f 3/4/5 21/9/5 22/1/5
f 8/9/2 7/10/2 23/12/2
f 5/13/6 20/14/6 19/15/6
f 6/16/5 24/17/5 25/18/5
f 18/19/5 31/20/5 32/21/5
f 8/1/3 34/22/3 35/23/3
f 38/24/3 9/25/3 1/5/3
f 9/26/6 39/27/6 40/28/6
f 10/29/2 40/30/2 41/31/2
f 12/32/2 42/33/2 32/34/2
f 44/35/3 33/36/3 8/1/3
f 21/1/4 3/5/4 20/6/4
f 19/37/5 18/38/5 32/39/5
f 8/40/6 22/41/6 21/3/6
f 45/13/1 23/42/1 7/43/1
f 23/19/3 45/38/3 20/37/3
f 6/16/5 39/25/5 46/24/5
f 36/44/4 25/34/4 24/33/4
f 13/45/1 32/28/1 25/27/1
f 7/19/5 30/36/5 47/35/5
f 33/26/6 30/27/6 29/28/6
f 38/46/4 46/31/4 39/30/4
f 37/26/6 24/27/6 42/28/6
f 11/45/1 41/28/1 46/27/1
f 44/47/4 47/48/4 30/49/4
f 16/50/2 29/49/2 48/48/2
f 43/45/1 48/28/1 47/27/1
f 35/26/6 26/27/6 31/28/6
f 14/51/2 31/52/2 28/53/2
f 34/54/4 27/53/4 26/52/4
f 15/45/1 28/28/1 27/27/1
f 1/5/1 2/1/1 4/3/1
f 7/10/2 8/9/2 1/4/2
f 2/4/3 1/5/3 9/25/3
f 6/11/2 7/10/2 1/4/2
f 5/6/2 6/11/2 1/4/2
f 2/4/3 14/55/3 17/9/3
f 16/56/3 17/9/3 15/57/3
f 14/55/3 2/4/3 13/39/3
f 12/58/3 2/4/3 11/8/3
f 2/4/3 9/25/3 10/7/3
f 19/11/4 20/6/4 3/5/4
f 4/5/5 3/4/5 22/1/5
f 2/4/3 12/58/3 13/39/3
f 17/9/3 14/55/3 15/57/3
f 19/11/4 3/5/4 2/4/4
f 2/4/4 17/9/4 19/11/4
f 23/12/2 5/6/2 4/5/2
f 6/59/6 5/13/6 19/15/6
f 23/12/2 4/5/2 22/1/2
f 22/1/2 8/9/2 23/12/2
f 6/16/5 26/23/5 7/19/5
f 28/57/5 29/56/5 30/36/5
f 18/19/5 29/60/5 28/61/5
f 27/22/5 28/57/5 30/36/5
f 26/62/5 25/63/5 32/21/5
f 6/16/5 25/18/5 26/23/5
f 26/23/5 27/22/5 7/19/5
f 27/22/5 30/36/5 7/19/5
f 31/20/5 26/62/5 32/21/5
f 18/19/5 28/61/5 31/20/5
f 36/18/3 37/17/3 1/5/3
f 14/55/3 13/39/3 36/18/3
f 16/56/3 15/57/3 34/22/3
f 35/23/3 14/55/3 36/18/3
f 33/36/3 16/56/3 34/22/3
f 10/45/6 9/26/6 40/28/6
f 8/1/3 35/23/3 1/5/3
f 8/1/3 33/36/3 34/22/3
f 35/23/3 36/18/3 1/5/3
f 12/58/3 11/8/3 38/24/3
f 37/17/3 12/58/3 38/24/3
f 1/5/3 37/17/3 38/24/3
f 11/46/2 10/29/2 41/31/2
f 13/44/2 12/32/2 32/34/2
f 17/9/3 16/56/3 43/64/3
f 18/10/4 17/9/4 21/1/4
f 17/9/3 43/64/3 44/35/3
f 8/1/3 17/9/3 44/35/3
f 40/7/5 19/37/5 41/8/5
f 45/12/4 18/10/4 21/1/4
f 20/6/4 45/12/4 21/1/4
f 40/7/5 39/25/5 6/16/5
f 17/5/6 8/40/6 21/3/6
f 40/7/5 6/16/5 19/37/5
f 18/59/1 45/13/1 7/43/1
f 19/37/5 42/58/5 41/8/5
f 19/37/5 32/39/5 42/58/5
f 5/16/3 23/19/3 20/37/3
f 41/8/5 42/58/5 24/17/5
f 37/32/4 36/44/4 24/33/4
f 46/24/5 41/8/5 24/17/5
f 46/24/5 24/17/5 6/16/5
f 36/26/1 13/45/1 25/27/1
f 48/64/5 29/56/5 18/38/5
f 16/45/6 33/26/6 29/28/6
f 48/64/5 18/38/5 7/19/5
f 47/35/5 48/64/5 7/19/5
f 9/29/4 38/46/4 39/30/4
f 12/45/6 37/26/6 42/28/6
f 38/26/1 11/45/1 46/27/1
f 33/50/4 44/47/4 30/49/4
f 43/47/2 16/50/2 48/48/2
f 44/26/1 43/45/1 47/27/1
f 14/45/6 35/26/6 31/28/6
f 15/54/2 14/51/2 28/53/2
f 35/51/4 34/54/4 26/52/4
f 34/26/1 15/45/1 27/27/1
